<?xml version="1.0" encoding="UTF-8" standalone="no"?>
<svg
   xmlns:dc="http://purl.org/dc/elements/1.1/"
   xmlns:cc="http://creativecommons.org/ns#"
   xmlns:rdf="http://www.w3.org/1999/02/22-rdf-syntax-ns#"
   xmlns:svg="http://www.w3.org/2000/svg"
   xmlns="http://www.w3.org/2000/svg"
   xmlns:sodipodi="http://sodipodi.sourceforge.net/DTD/sodipodi-0.dtd"
   xmlns:inkscape="http://www.inkscape.org/namespaces/inkscape"
   width="423"
   height="186"
   viewBox="0 0 111.91857 49.212468"
   version="1.1"
   id="svg8"
   inkscape:version="1.0.1 (3bc2e813f5, 2020-09-07)"
   sodipodi:docname="Logo 295 x 90 px WHITE big.svg">
  <defs
     id="defs2" />
  <sodipodi:namedview
     id="base"
     pagecolor="#ffffff"
     bordercolor="#666666"
     borderopacity="1.0"
     inkscape:pageopacity="0.0"
     inkscape:pageshadow="2"
     inkscape:zoom="1.4"
     inkscape:cx="-56.615731"
     inkscape:cy="132.68547"
     inkscape:document-units="mm"
     inkscape:current-layer="layer1"
     showgrid="false"
     units="px"
     inkscape:window-width="1920"
     inkscape:window-height="1027"
     inkscape:window-x="-8"
     inkscape:window-y="-8"
     inkscape:window-maximized="1"
     inkscape:document-rotation="0"
     inkscape:pagecheckerboard="true" />
  <metadata
     id="metadata5">
    <rdf:RDF>
      <cc:Work
         rdf:about="">
        <dc:format>image/svg+xml</dc:format>
        <dc:type
           rdf:resource="http://purl.org/dc/dcmitype/StillImage" />
        <dc:title></dc:title>
      </cc:Work>
    </rdf:RDF>
  </metadata>
  <g
     inkscape:label="Layer 1"
     inkscape:groupmode="layer"
     id="layer1"
     transform="translate(0,-273.1875)">
    <path
       style="fill:#ffffff;stroke-width:0.169442"
       d="m 61.992892,299.11131 c -4.095867,-1.46359 -6.471309,-3.46764 -8.616725,-7.26943 l -0.593047,-1.05091 -0.954557,0.10546 c -1.216613,0.13444 -2.01742,-0.12754 -2.672702,-0.8738 -0.586028,-0.66744 -1.032394,-2.00392 -1.032394,-3.09111 0,-0.72911 -0.01284,-0.74691 -0.45453,-0.63602 -0.249998,0.0629 -1.855295,0.21487 -3.567337,0.33806 -1.712035,0.12327 -3.130518,0.25169 -3.152176,0.28555 -0.360649,0.56369 -1.128616,1.88149 -1.128616,1.93668 0,0.0406 0.629056,0.0792 1.397901,0.0861 1.559815,0.0138 6.166045,0.43482 5.167978,0.47199 -0.349478,0.0124 -0.635408,0.10808 -0.635408,0.21124 0,0.10325 -0.09571,0.15087 -0.212694,0.10601 -0.116981,-0.0449 -0.305372,0.0177 -0.418641,0.13892 -0.161656,0.17303 -0.161539,0.23527 5.04e-4,0.28928 0.113557,0.0378 -0.136499,0.12299 -0.555645,0.18902 -0.419161,0.0662 -1.74307,0.39207 -2.942022,0.72431 -2.552304,0.70733 -2.60828,0.69555 -3.55865,-0.74756 -0.995896,-1.51224 -0.994493,-1.53057 0.307776,-4.02211 0.633225,-1.21151 1.572412,-2.89938 2.08707,-3.75087 l 0.935743,-1.54813 0.865105,-0.10394 c 0.475806,-0.057 2.504453,-0.15338 4.508107,-0.21388 l 3.642999,-0.10987 0.847212,-0.74634 c 1.196311,-1.05387 3.580703,-2.18377 5.33101,-2.52624 3.253023,-0.63649 5.97481,0.11236 7.070029,1.94514 1.001973,1.67674 0.932404,4.0465 -0.188056,6.40587 -1.069441,2.25194 -3.646382,4.40745 -6.155435,5.14882 -0.396068,0.11705 -0.720128,0.29686 -0.720128,0.39965 0,0.32745 2.45568,3.02894 3.631987,3.99553 0.623764,0.51255 1.557118,1.13436 2.074115,1.38181 0.658106,0.31498 0.8454,0.46949 0.62454,0.51522 -0.190443,0.0393 0.0032,0.1475 0.489397,0.27267 0.785636,0.20242 1.099982,0.53877 0.508325,0.54396 -0.255845,0.003 -0.261652,0.0272 -0.04235,0.18212 0.188648,0.13334 0.08726,0.15188 -0.393283,0.0722 -0.356086,-0.0591 -0.77546,-0.14497 -0.931924,-0.19128 -0.156476,-0.0461 0.161556,0.15387 0.70675,0.44482 0.545182,0.29084 0.961398,0.55865 0.924925,0.59511 -0.06703,0.067 -2.30702,-0.46408 -2.932823,-0.69539 -0.186384,-0.069 -0.297587,-0.0783 -0.24711,-0.0207 0.05048,0.0577 0.812962,0.38241 1.694418,0.72189 0.881455,0.33947 1.634417,0.64766 1.673252,0.68482 0.237132,0.22712 -0.825711,-0.038 -2.382885,-0.5945 z m -0.497631,-1.41911 c -0.03881,-0.0265 -0.223099,-0.15977 -0.409483,-0.29655 -0.31347,-0.22992 -0.321443,-0.2263 -0.106339,0.0479 0.127886,0.16314 0.312167,0.29651 0.409483,0.29651 0.09731,0 0.145175,-0.0215 0.106339,-0.0479 z m -4.73718,-8.84355 c 2.257716,-1.3715 3.734649,-3.83329 3.734649,-6.22504 0,-1.9473 -0.827846,-2.61156 -3.06498,-2.4593 -2.757165,0.18765 -4.590668,1.76353 -5.234608,4.49909 -0.2618,1.11215 -0.153937,2.66253 0.210592,3.02705 0.24581,0.2458 0.33035,0.24459 0.977619,-0.0138 0.845467,-0.3383 0.96733,-0.2653 1.51727,0.90884 0.219634,0.46894 0.509763,0.85262 0.644728,0.85262 0.134966,0 0.681596,-0.26501 1.21473,-0.58885 z M 46.68321,284.86256 c -0.05759,-0.0932 -0.309906,-0.16828 -0.560686,-0.16683 -0.356637,10e-4 -0.400595,0.0384 -0.201804,0.16683 0.334793,0.21637 0.896208,0.21637 0.76249,0 z m 1.609698,0 c 0,-0.0932 -0.08076,-0.16946 -0.179443,-0.16946 -0.0987,0 -0.132329,0.0762 -0.07473,0.16946 0.05757,0.0932 0.138346,0.16945 0.179442,0.16945 0.04112,0 0.07473,-0.0762 0.07473,-0.16945 z m -5.718668,-0.11222 c -0.116497,-0.0471 -0.307108,-0.0471 -0.423606,0 -0.116497,0.0471 -0.0212,0.0854 0.211803,0.0854 0.232988,0 0.328296,-0.0385 0.211803,-0.0854 z m 5.040902,-0.0571 c 0,-0.0932 0.190617,-0.16943 0.423599,-0.16943 0.289529,0 0.424394,-0.0939 0.426084,-0.29653 0.0013,-0.16314 0.249171,-0.79927 0.550689,-1.4137 l 0.548203,-1.11718 -0.88992,0.31394 c -0.742441,0.26191 -4.484703,0.81903 -5.501566,0.81903 -0.334486,0 -0.732848,0.5429 -0.901404,1.22847 l -0.114579,0.46597 h 2.380561 c 1.40426,0 2.423504,0.0696 2.485271,0.16943 0.05757,0.0932 0.214598,0.16945 0.34889,0.16945 0.134276,0 0.244164,-0.0762 0.244165,-0.16945 z M 3.0519104,295.13366 c 0,-0.0359 0.1526031,-0.1049 0.3391154,-0.15356 0.1865205,-0.0489 0.2963895,-0.0197 0.2441641,0.0647 -0.091199,0.14766 -0.5832795,0.22238 -0.5832795,0.0888 z m 1.1406224,-0.57777 c 0.164803,-0.12063 0.4711936,-0.26223 0.6808772,-0.31487 0.2096833,-0.0526 0.3812434,-0.17646 0.3812434,-0.27507 0,-0.0986 0.046936,-0.13237 0.1043069,-0.0748 0.057383,0.0574 0.3051821,-0.0857 0.5506886,-0.31802 0.4013393,-0.37973 1.4127589,-0.93698 4.4889961,-2.47322 0.545963,-0.27264 0.95336,-0.53502 0.905316,-0.58307 -0.04803,-0.048 -0.319392,0.0326 -0.603004,0.1793 -0.283612,0.14665 -0.599219,0.26665 -0.7013519,0.26665 -0.3052648,0 -2.671933,1.15272 -2.7365888,1.33291 -0.032853,0.0917 -0.4567661,0.32241 -0.9419667,0.51283 -0.7035804,0.27616 -0.8628579,0.29589 -0.7867196,0.0976 0.1289343,-0.33599 0.016464,-0.31645 -0.9182009,0.15944 -0.4409552,0.22452 -0.9923543,0.45721 -1.2253351,0.51709 -0.4100359,0.10532 -0.4127519,0.10063 -0.084725,-0.14817 0.1863862,-0.14144 0.4309779,-0.33601 0.5435294,-0.43237 0.112557,-0.0963 0.3031835,-0.17406 0.423606,-0.17265 0.2692935,0.003 4.8982502,-2.24217 4.8081444,-2.33229 -0.035609,-0.0356 -0.548953,0.17025 -1.1408391,0.45737 -1.9025581,0.92295 -0.3627363,-0.0211 3.3578893,-2.05859 1.990908,-1.09032 3.961176,-2.22751 4.378372,-2.5271 1.152552,-0.82769 1.599904,-1.68153 1.001351,-1.91124 -0.426834,-0.1638 -2.696313,-0.11954 -4.637986,0.0905 -1.359733,0.14699 -1.959112,0.14547 -2.5070797,-0.008 -0.7020251,-0.19469 -0.7200835,-0.21766 -0.7184709,-0.9133 0.00251,-1.03565 0.7205198,-2.43939 1.7371086,-3.39568 1.712816,-1.61116 5.775471,-3.17002 8.963064,-3.43914 1.247405,-0.10532 1.315291,-0.0922 1.748442,0.34106 0.709076,0.70908 0.520557,0.96108 -1.183858,1.58248 -0.837926,0.3055 -2.171618,0.79131 -2.963755,1.0796 -2.84138,1.0341 -5.05385,2.27203 -4.69752,2.62835 0.05572,0.0556 0.833135,-0.0304 1.727642,-0.19156 2.192709,-0.39482 5.19139,-0.29936 6.03275,0.19202 0.800602,0.46758 1.037369,0.98665 0.918752,2.01424 -0.208376,1.80509 -1.412605,3.50553 -3.504859,4.94905 -2.439924,1.6834 -9.4819105,4.97047 -10.7537902,5.01969 -0.3877439,0.0152 -0.6631714,0.095 -0.6120607,0.17764 0.051104,0.0825 -0.142613,0.11595 -0.4305094,0.0734 -0.2878958,-0.0424 -0.4966323,-0.0334 -0.4638555,0.0197 0.032797,0.053 -0.2776443,0.0963 -0.6898239,0.0963 -0.6544287,0 -0.7114386,-0.0279 -0.4497857,-0.21915 z m 3.095424,-0.8822 c 0.1397859,-0.0906 0.1779177,-0.16432 0.084725,-0.16432 -0.093201,0 -0.2838161,0.0738 -0.4236061,0.16432 -0.139786,0.0905 -0.1779178,0.16431 -0.084725,0.16431 0.093186,0 0.2838106,-0.0739 0.4236004,-0.16431 z m -0.1694397,-0.60496 c 0,-0.0465 -0.1524937,-0.003 -0.3388861,0.0968 -0.1863861,0.0996 -0.3388805,0.21949 -0.3388805,0.26608 0,0.0465 0.1524938,0.003 0.3388805,-0.0968 0.1863917,-0.0998 0.3388861,-0.21949 0.3388861,-0.26607 z m 2.0333022,-0.0908 c 0,-0.0832 -0.076251,-0.15118 -0.1694395,-0.15118 -0.093186,0 -0.1694468,0.0738 -0.1694468,0.16413 0,0.0903 -0.1334382,0.12133 -0.2965221,0.0686 -0.2348059,-0.0755 -0.2468212,-0.06 -0.057706,0.0745 0.2597817,0.18467 0.6931358,0.0872 0.6931358,-0.15591 z m 1.1860917,-3.12524 c 0,-0.0465 -0.228742,0.0337 -0.5083262,0.17817 -0.279577,0.14462 -0.508326,0.30097 -0.508326,0.34756 0,0.0465 0.228749,-0.0334 0.508326,-0.17815 0.2795842,-0.14462 0.5083262,-0.301 0.5083262,-0.34758 z m 1.685099,-0.76192 c 0.414237,-0.28068 0.928922,-0.55443 1.143734,-0.60833 0.214814,-0.054 0.390569,-0.16751 0.390569,-0.25256 0,-0.15692 -0.657645,0.14565 -2.033304,0.93546 -0.419373,0.2408 -0.648115,0.43735 -0.508326,0.43677 0.139788,-5.3e-4 0.593084,-0.23068 1.007327,-0.51134 z m -10.3266376,5.17772 c 0,-0.11608 1.0374779,-0.63032 1.1149937,-0.55279 0.036755,0.0369 -0.1990656,0.19365 -0.5240739,0.34864 -0.3250026,0.15507 -0.5909198,0.24684 -0.5909198,0.20415 z M 80.65632,293.73873 c 0,-0.0243 0.381245,-0.25139 0.847208,-0.50499 0.465968,-0.2536 0.847211,-0.52434 0.847211,-0.60162 0,-0.0774 0.171561,-0.12243 0.381243,-0.10021 0.209682,0.0222 0.36698,-0.0407 0.349548,-0.13942 -0.01742,-0.0988 0.687872,-0.54423 1.567341,-0.98968 0.879461,-0.44541 1.599029,-0.83768 1.599029,-0.87166 0,-0.0875 -1.147309,0.32814 -2.08608,0.75578 -0.436939,0.19904 -0.79443,0.41982 -0.79443,0.49058 0,0.21882 -1.497893,0.7066 -1.56369,0.50922 -0.03528,-0.10601 -0.328078,-0.033 -0.727782,0.18131 -0.367813,0.19713 -0.746123,0.35673 -0.840693,0.35466 -0.241741,-0.007 0.629058,-0.66562 0.883849,-0.67023 0.413142,-0.008 2.396271,-1.08755 2.295674,-1.2503 -0.06007,-0.0972 0.01367,-0.12174 0.176976,-0.0592 0.153954,0.0592 0.261775,0.0322 0.239599,-0.0599 -0.02217,-0.0922 1.255902,-0.87838 2.840183,-1.74756 3.03181,-1.66331 4.050326,-2.41943 3.952261,-2.93403 -0.04803,-0.25201 -0.255339,-0.31629 -1.15817,-0.35905 -0.604818,-0.0286 -1.709658,0.0283 -2.455207,0.12644 -0.943272,0.12409 -1.548781,0.12478 -1.990939,10e-4 -0.552931,-0.15389 -0.635408,-0.24248 -0.635408,-0.68278 0,-0.74149 0.734038,-2.06587 1.515928,-2.73515 1.922185,-1.64532 7.385521,-3.16163 8.135506,-2.25796 0.472871,0.56981 0.135628,0.82247 -2.281482,1.70942 -2.685216,0.98531 -3.919805,1.57407 -4.388625,2.09286 -0.177528,0.19648 -0.291898,0.3557 -0.254159,0.35386 0.03771,-10e-4 0.678611,-0.11346 1.424156,-0.24824 2.293363,-0.41437 4.342426,-0.2351 5.016413,0.43889 0.940648,0.94067 -0.114786,3.36557 -2.110523,4.84899 -1.105002,0.82135 -6.225019,3.399 -7.650261,3.85152 -0.742857,0.23585 -3.134676,0.61469 -3.134676,0.49649 z m 4.066601,-1.34344 c 0,-0.0308 -0.147209,-0.0449 -0.327142,-0.0315 -0.179927,0.0138 -0.291858,0.0817 -0.248733,0.15136 0.07158,0.11595 0.575875,0.01 0.575875,-0.12008 z m 0.377153,-2.10978 c 0.305128,-0.18604 0.478532,-0.33804 0.38534,-0.33776 -0.09318,3.3e-4 -0.398189,0.15202 -0.677765,0.33711 -0.662453,0.43873 -0.426951,0.43924 0.292425,6.5e-4 z m 1.731187,-0.86459 c 0.83174,-0.49075 0.757375,-0.57647 -0.117395,-0.1354 -0.834314,0.42075 -0.930597,0.49096 -0.673332,0.49096 0.103399,0 0.459225,-0.16012 0.790727,-0.35562 z m -66.072636,4.08339 c -0.05252,-0.0852 0.02126,-0.43412 0.164027,-0.77577 0.338215,-0.80947 0.326705,-0.93348 -0.0381,-0.41036 -0.16248,0.23296 -0.431521,0.43464 -0.597875,0.44812 -0.202793,0.0168 -0.25334,-0.0393 -0.153382,-0.16945 0.264514,-0.34415 0.384808,-0.81544 0.175035,-0.6858 -0.136029,0.0841 -0.156561,-0.0247 -0.07024,-0.37246 0.06707,-0.27017 0.193045,-0.5168 0.279931,-0.54807 0.08689,-0.0313 0.119245,-0.11939 0.07189,-0.1961 -0.04733,-0.0767 0.76057,-1.88102 1.795358,-4.00977 1.034794,-2.12879 2.295743,-4.7283 2.802111,-5.77674 0.996022,-2.06223 1.169633,-2.19811 1.987161,-1.55502 0.33167,0.26087 0.446455,0.50495 0.446455,0.94929 0,0.80463 -0.844932,3.27814 -1.709076,5.00326 -0.802806,1.60267 -3.340427,6.06452 -3.594246,6.31968 -0.111956,0.11264 -0.122957,0.0894 -0.0328,-0.0685 0.08893,-0.15591 0.07085,-0.19787 -0.05245,-0.12161 -0.103537,0.0639 -0.151734,0.21138 -0.107167,0.32758 0.04458,0.11622 -0.04066,0.36154 -0.18941,0.54525 -0.148757,0.18372 -0.22219,0.23871 -0.163186,0.12229 0.186371,-0.36792 -0.06108,-0.22888 -0.262537,0.14749 -0.14768,0.27592 -0.145141,0.33018 0.0109,0.23372 0.153936,-0.0952 0.159184,-0.0433 0.02157,0.21379 -0.210613,0.39352 -0.645309,0.60381 -0.784065,0.3793 z m 0.464227,-0.22908 c 0.107967,0.0665 0.131626,0.0317 0.05854,-0.0864 -0.144181,-0.23329 -0.444035,-0.0932 -0.424701,0.19839 0.0094,0.14446 0.03779,0.14127 0.09919,-0.01 0.04719,-0.11705 0.16734,-0.16247 0.266961,-0.10091 z m 3.948041,-0.0769 c 0.01979,-0.2512 0.09169,-0.59015 0.15979,-0.75323 0.152725,-0.36574 -0.06076,-0.39016 -0.319348,-0.0364 -0.170368,0.23299 -0.22511,0.23168 -0.527007,-0.0124 -0.185289,-0.14985 -0.236475,-0.22112 -0.113765,-0.15826 0.136264,0.0698 0.207165,0.0251 0.182118,-0.1147 -0.08673,-0.48384 0.445733,-1.86902 1.899196,-4.94052 0.829395,-1.75271 1.507991,-3.22875 1.507991,-3.28011 0,-0.0514 -0.208431,-0.041 -0.463189,0.0229 l -0.463188,0.11622 0.447558,-0.35203 c 0.246154,-0.19363 0.549901,-0.3574 0.674993,-0.36397 0.125097,-0.008 0.07492,-0.0715 -0.11146,-0.14447 -0.328094,-0.12836 -0.32675,-0.13637 0.04233,-0.25367 0.595639,-0.18936 0.447064,-0.43246 -0.158226,-0.25887 -0.793755,0.22762 -0.750176,0.0976 0.116719,-0.34826 0.491975,-0.25303 0.931265,-0.65974 1.229511,-1.13832 0.420762,-0.67516 0.511463,-0.73489 0.972373,-0.64017 0.656657,0.13499 0.837739,0.13416 2.994669,-0.01 1.764401,-0.11857 1.827692,-0.11029 2.591131,0.33704 0.901129,0.52809 1.730075,1.58096 1.881898,2.39023 0.131681,0.70187 -0.29284,2.20973 -0.994295,3.53175 -1.68672,3.17892 -6.011566,5.26443 -8.832726,4.25926 -0.606545,-0.2161 -1.283677,-0.11953 -1.283677,0.18303 0,0.0487 0.08385,0.037 0.186347,-0.0266 0.130977,-0.0809 0.129196,-0.008 -0.0057,0.24418 -0.105772,0.19763 -0.263188,0.35933 -0.349824,0.35933 -0.08664,0 -0.24406,0.16162 -0.34983,0.35932 -0.154979,0.28959 -0.147915,0.33648 0.03637,0.24161 0.125787,-0.0649 0.09647,-0.008 -0.06516,0.12326 -0.16164,0.13251 -0.237888,0.30734 -0.169441,0.38825 0.06845,0.0807 -0.02146,0.0353 -0.199814,-0.10159 -0.301608,-0.23117 -0.311317,-0.22427 -0.138918,0.0994 0.190149,0.35702 0.0967,0.64313 -0.229171,0.70175 -0.101922,0.0184 -0.16798,-0.17065 -0.148052,-0.4236 z m -0.23936,-1.51573 c 0.210766,-0.26871 0.204771,-0.27473 -0.06398,-0.0639 -0.163086,0.12795 -0.296523,0.26133 -0.296523,0.2965 0,0.13942 0.139136,0.0497 0.360499,-0.23254 z m 6.158789,-2.48784 c 1.523525,-0.89283 3.340381,-3.6213 3.581171,-5.37802 0.09317,-0.67981 0.05879,-0.8039 -0.290717,-1.04871 -0.408895,-0.28639 -1.828551,-0.37431 -2.825292,-0.17497 -0.456048,0.0911 -0.562742,0.2378 -0.955755,1.31318 -0.243317,0.66578 -0.974946,2.19936 -1.625847,3.40795 -0.650895,1.20862 -1.182955,2.19983 -1.182353,2.20276 6.41e-4,0.003 0.576935,0.029 1.280733,0.0578 1.121241,0.0461 1.371028,-6.3e-4 2.01806,-0.38009 z m 48.285204,3.89509 c 0.180905,-0.14481 0.403293,-0.26348 0.494212,-0.26348 0.215281,0 0.119162,0.0781 -0.399514,0.32525 -0.399419,0.19023 -0.404828,0.1867 -0.0947,-0.0617 z m 16.911812,-1.10616 -0.720127,-0.32687 v -1.35371 c 0,-1.54236 0.350604,-2.68897 1.702439,-5.56762 l 0.81561,-1.73676 h -1.226637 c -0.722101,0 -1.347302,-0.0883 -1.519988,-0.21454 -0.268908,-0.19662 -0.271713,-0.25785 -0.03362,-0.73507 0.468638,-0.93941 0.781992,-1.09266 2.648993,-1.29557 1.248704,-0.13554 1.826643,-0.27383 2.04043,-0.48763 0.315432,-0.31544 1.257382,-0.5579 1.782862,-0.45895 0.1724,0.0324 0.38872,0.23017 0.4807,0.4393 0.13763,0.31287 0.30281,0.38048 0.93194,0.38144 1.04727,0.001 3.78291,0.42474 4.17348,0.64549 0.27316,0.15439 0.20953,0.19838 -0.44358,0.30669 l -0.76248,0.12643 0.67484,0.14329 c 1.11633,0.23722 1.11372,0.46874 -0.006,0.4935 -0.88383,0.0197 -0.93504,0.0377 -0.41514,0.14716 0.32618,0.0686 0.5168,0.1361 0.42361,0.14968 -0.0932,0.0138 -0.0574,0.0955 0.0794,0.18228 0.18044,0.11415 0.0873,0.15591 -0.33888,0.15203 -0.32326,-0.003 -1.66305,10e-4 -2.97733,0.01 l -2.38958,0.0168 -0.77415,1.65078 c -1.224192,2.61044 -2.202439,5.16332 -2.661614,6.94583 -0.213287,0.82799 -0.402951,0.87725 -1.48561,0.38579 z m -22.15159,-0.8094 c -0.584416,-0.58329 -1.439497,-2.05487 -1.44161,-2.481 -0.0021,-0.37072 1.815486,-3.88073 3.179694,-6.14132 l 0.934257,-1.54815 0.865098,-0.10546 c 0.475813,-0.0578 2.587528,-0.15356 4.692716,-0.21227 3.451851,-0.0963 3.838069,-0.0795 3.934209,0.17093 0.07143,0.18611 0.0171,0.2778 -0.164617,0.2778 -0.14916,0 -0.508953,0.14481 -0.799525,0.32168 -0.909878,0.55402 -2.096649,0.86271 -4.313467,1.12203 -1.178792,0.13789 -2.275399,0.25069 -2.436908,0.25069 -0.334487,0 -0.732854,0.54291 -0.901411,1.22847 l -0.114579,0.46596 h 2.308146 c 1.542226,0 2.427171,0.0703 2.666857,0.2118 0.286979,0.16946 0.374063,0.16946 0.435427,0 0.0422,-0.11636 0.318157,-0.20142 0.613272,-0.18872 0.415291,0.0179 0.448159,0.04 0.145426,0.0977 -0.31482,0.06 -0.352449,0.12146 -0.192845,0.31361 0.109058,0.13155 0.15402,0.35429 0.09993,0.49527 -0.06347,0.16549 0.0052,0.26105 0.192848,0.2697 0.178476,0.008 0.208805,0.0465 0.07836,0.0992 -0.117077,0.0472 -0.175109,0.14683 -0.128962,0.22157 0.109472,0.17715 -2.051575,0.47044 -4.402563,0.59752 -3.035601,0.16415 -2.97692,0.14497 -3.557318,1.15272 -0.279052,0.48447 -0.533219,0.93807 -0.56481,1.00794 -0.03157,0.0698 0.577971,0.13265 1.354576,0.13976 1.569102,0.0138 6.186115,0.43459 5.182101,0.47199 -0.349472,0.0124 -0.635402,0.10808 -0.635402,0.21123 0,0.10325 -0.09571,0.15087 -0.212702,0.10615 -0.116981,-0.0449 -0.305365,0.0177 -0.418634,0.13891 -0.161656,0.17306 -0.161471,0.23559 6.4e-4,0.2908 0.113765,0.0387 -0.13734,0.12244 -0.55801,0.18627 -0.420666,0.0638 -1.711988,0.38086 -2.869602,0.70462 -1.157567,0.32379 -2.194532,0.58869 -2.304318,0.58869 -0.109776,0 -0.409703,-0.20968 -0.666482,-0.46598 z m 7.960824,-6.31172 c -0.05757,-0.0932 -0.309901,-0.16827 -0.560685,-0.16684 -0.35663,10e-4 -0.400595,0.0384 -0.201801,0.16684 0.334797,0.21636 0.896204,0.21636 0.762486,0 z m -4.108962,-0.11222 c -0.116498,-0.0471 -0.307114,-0.0471 -0.423606,0 -0.116498,0.0471 -0.02122,0.0854 0.211802,0.0854 0.232983,0 0.328293,-0.0385 0.211804,-0.0854 z m -13.077348,6.43527 c -0.827448,-0.43846 -1.202114,-1.03854 -1.309281,-2.097 -0.167459,-1.65389 0.831018,-4.43936 2.536153,-7.07525 0.727276,-1.12424 1.456684,-1.68745 1.605862,-1.2399 0.03514,0.1056 0.19487,0.19193 0.354852,0.19193 0.391885,0 0.697631,0.3307 0.697098,0.75401 -1.67e-4,0.19106 -0.277752,0.80486 -0.616687,1.36402 -0.877806,1.4481 -1.9017,3.60328 -2.025569,4.26354 -0.156746,0.83555 0.03765,1.39038 0.530541,1.5141 1.041624,0.26141 2.374616,-0.97733 3.472396,-3.22691 0.590125,-1.2093 2.028513,-5.5781 2.02857,-6.16138 1.4e-5,-0.12188 0.08445,-0.16964 0.187622,-0.106 0.127789,0.0791 0.149009,-0.007 0.06657,-0.26538 -0.08245,-0.25977 -0.06123,-0.34435 0.06657,-0.26536 0.103178,0.0638 0.193395,0.24486 0.200485,0.40245 0.0072,0.15759 0.115656,0.0199 0.241269,-0.30652 l 0.228383,-0.59305 0.02665,0.59305 0.02664,0.59304 0.232755,-0.50832 c 0.128037,-0.27957 0.236198,-0.40367 0.240403,-0.27579 0.0063,0.18746 0.05692,0.19167 0.261802,0.0215 0.319398,-0.26506 0.31939,-0.14514 -3.4e-5,0.61927 -0.235803,0.56435 -0.233807,0.59154 0.02762,0.3758 0.623543,-0.51462 -0.04769,3.81031 -1.025956,6.61026 -0.75338,2.15634 -1.921444,3.43755 -4.036219,4.42715 -1.453598,0.68024 -3.158984,0.84594 -4.018498,0.3905 z m 8.067475,-11.09921 c -0.05411,-0.13527 -0.09423,-0.095 -0.102391,0.10242 -0.0075,0.17864 0.03273,0.27871 0.08899,0.22241 0.05629,-0.0563 0.06231,-0.20244 0.01339,-0.32477 z m 35.173763,1.60876 c 0.16487,-0.0429 0.3936,-0.0402 0.50833,0.008 0.11471,0.0464 -0.0202,0.0816 -0.29976,0.0781 -0.27957,-0.003 -0.37344,-0.0414 -0.20857,-0.0842 z m -35.526726,-3.03413 c -0.06031,-0.15708 -0.07151,-0.32383 -0.02492,-0.37043 0.04664,-0.0465 0.134069,0.0439 0.194365,0.201 0.06031,0.15724 0.07151,0.32386 0.02492,0.37044 -0.04664,0.0465 -0.134056,-0.044 -0.194358,-0.20101 z"
       id="path3724"
       inkscape:connector-curvature="0"
       inkscape:export-xdpi="96"
       inkscape:export-ydpi="96" />
  </g>
</svg>
