<?xml version="1.0" encoding="UTF-8" standalone="no"?>
<svg
   xmlns:dc="http://purl.org/dc/elements/1.1/"
   xmlns:cc="http://creativecommons.org/ns#"
   xmlns:rdf="http://www.w3.org/1999/02/22-rdf-syntax-ns#"
   xmlns:svg="http://www.w3.org/2000/svg"
   xmlns="http://www.w3.org/2000/svg"
   xmlns:sodipodi="http://sodipodi.sourceforge.net/DTD/sodipodi-0.dtd"
   xmlns:inkscape="http://www.inkscape.org/namespaces/inkscape"
   width="295"
   height="90"
   viewBox="0 0 78.052083 23.8125"
   version="1.1"
   id="svg8"
   inkscape:version="1.0.1 (3bc2e813f5, 2020-09-07)"
   sodipodi:docname="Logo 295 x 90 px.svg">
  <defs
     id="defs2" />
  <sodipodi:namedview
     id="base"
     pagecolor="#ffffff"
     bordercolor="#666666"
     borderopacity="1.0"
     inkscape:pageopacity="0.0"
     inkscape:pageshadow="2"
     inkscape:zoom="0.98994949"
     inkscape:cx="-189.92687"
     inkscape:cy="297.39044"
     inkscape:document-units="mm"
     inkscape:current-layer="layer1"
     showgrid="false"
     units="px"
     inkscape:window-width="1920"
     inkscape:window-height="1027"
     inkscape:window-x="-8"
     inkscape:window-y="-8"
     inkscape:window-maximized="1"
     inkscape:document-rotation="0" />
  <metadata
     id="metadata5">
    <rdf:RDF>
      <cc:Work
         rdf:about="">
        <dc:format>image/svg+xml</dc:format>
        <dc:type
           rdf:resource="http://purl.org/dc/dcmitype/StillImage" />
        <dc:title></dc:title>
      </cc:Work>
    </rdf:RDF>
  </metadata>
  <g
     inkscape:label="Layer 1"
     inkscape:groupmode="layer"
     id="layer1"
     transform="translate(0,-273.1875)">
    <path
       style="fill:#ffffff;stroke-width:0.12275688"
       d="m 44.056931,295.02553 c -2.967364,-1.06034 -4.688318,-2.51223 -6.242624,-5.26654 l -0.429649,-0.76136 -0.691555,0.0764 c -0.881409,0.0974 -1.461576,-0.0924 -1.936313,-0.63305 -0.424564,-0.48354 -0.747946,-1.45179 -0.747946,-2.23944 0,-0.52822 -0.0093,-0.54112 -0.329297,-0.46078 -0.181118,0.0456 -1.344119,0.15567 -2.584455,0.24492 -1.240331,0.0893 -2.26799,0.18234 -2.283681,0.20687 -0.261282,0.40838 -0.817657,1.3631 -0.817657,1.40308 0,0.0294 0.455737,0.0574 1.012748,0.0624 1.130051,0.01 4.467161,0.31502 3.744084,0.34195 -0.253189,0.009 -0.460339,0.0783 -0.460339,0.15304 0,0.0748 -0.06934,0.1093 -0.154092,0.0768 -0.08475,-0.0325 -0.221235,0.0128 -0.303296,0.10064 -0.117116,0.12536 -0.117031,0.17045 3.65e-4,0.20958 0.08227,0.0274 -0.09889,0.0891 -0.402552,0.13694 -0.303673,0.048 -1.262815,0.28405 -2.131429,0.52475 -1.849087,0.51244 -1.88964,0.50391 -2.578162,-0.54159 -0.721504,-1.09559 -0.720488,-1.10887 0.222977,-2.91393 0.458757,-0.87771 1.139177,-2.10054 1.512035,-2.71742 l 0.677925,-1.12159 0.626749,-0.0753 c 0.344711,-0.0413 1.81442,-0.11112 3.266022,-0.15495 l 2.639271,-0.0796 0.613786,-0.54071 c 0.866701,-0.7635 2.594139,-1.58209 3.862197,-1.8302 2.356742,-0.46112 4.328616,0.0814 5.122077,1.40921 0.725907,1.21476 0.675506,2.9316 -0.136242,4.64091 -0.774786,1.63148 -2.641722,3.1931 -4.459474,3.7302 -0.286943,0.0848 -0.521717,0.21507 -0.521717,0.28954 0,0.23723 1.779085,2.1944 2.631293,2.89467 0.451903,0.37133 1.128097,0.82182 1.50265,1.00109 0.476783,0.2282 0.612473,0.34014 0.452465,0.37327 -0.137972,0.0285 0.0023,0.10686 0.354557,0.19754 0.569176,0.14665 0.796912,0.39033 0.36827,0.39409 -0.185354,0.002 -0.189561,0.0197 -0.03068,0.13194 0.136671,0.0966 0.06322,0.11003 -0.284925,0.0523 -0.257976,-0.0428 -0.561803,-0.10503 -0.675158,-0.13858 -0.113363,-0.0334 0.117044,0.11148 0.512025,0.32226 0.394972,0.21071 0.696511,0.40473 0.670087,0.43115 -0.04856,0.0485 -1.671384,-0.33622 -2.124764,-0.5038 -0.135031,-0.05 -0.215595,-0.0567 -0.179026,-0.015 0.03657,0.0418 0.588973,0.27705 1.227568,0.52299 0.638594,0.24594 1.184098,0.46922 1.212233,0.49614 0.171797,0.16454 -0.598209,-0.0275 -1.726346,-0.4307 z m -0.360523,-1.02812 c -0.02812,-0.0192 -0.16163,-0.11575 -0.296661,-0.21484 -0.227102,-0.16657 -0.232878,-0.16395 -0.07704,0.0347 0.09265,0.11819 0.226158,0.21482 0.296661,0.21482 0.0705,0 0.105176,-0.0156 0.07704,-0.0347 z m -3.43198,-6.40695 c 1.635664,-0.99362 2.705669,-2.77713 2.705669,-4.5099 0,-1.41078 -0.599756,-1.89202 -2.220509,-1.78171 -1.997504,0.13595 -3.325836,1.27764 -3.792356,3.25949 -0.189668,0.80573 -0.111524,1.92894 0.152569,2.19303 0.178084,0.17808 0.239331,0.1772 0.708263,-0.01 0.612522,-0.24509 0.700809,-0.1922 1.099228,0.65844 0.15912,0.33973 0.369312,0.6177 0.467091,0.6177 0.09778,0 0.493801,-0.19199 0.880045,-0.42661 z m -7.299018,-2.88783 c -0.04172,-0.0675 -0.22452,-0.12192 -0.406204,-0.12087 -0.258376,0.001 -0.290222,0.0278 -0.146203,0.12087 0.24255,0.15675 0.649283,0.15675 0.552407,0 z m 1.16619,0 c 0,-0.0675 -0.05851,-0.12277 -0.130002,-0.12277 -0.07151,0 -0.09587,0.0552 -0.05414,0.12277 0.04171,0.0675 0.100229,0.12276 0.130002,0.12276 0.02979,0 0.05414,-0.0552 0.05414,-0.12276 z m -4.143046,-0.0813 c -0.0844,-0.0341 -0.222493,-0.0341 -0.306893,0 -0.0844,0.0341 -0.01536,0.0619 0.153446,0.0619 0.168795,0 0.237843,-0.0279 0.153447,-0.0619 z m 3.65202,-0.0414 c 0,-0.0675 0.138098,-0.12275 0.306888,-0.12275 0.209757,0 0.307464,-0.068 0.308688,-0.21483 9.28e-4,-0.11819 0.180519,-0.57905 0.398962,-1.02419 l 0.397161,-0.80937 -0.644727,0.22744 c -0.537882,0.18975 -3.249067,0.59337 -3.985761,0.59337 -0.242328,0 -0.530932,0.39332 -0.653047,0.89 l -0.08301,0.33758 h 1.724663 c 1.017355,0 1.755774,0.0504 1.800523,0.12275 0.04171,0.0675 0.155471,0.12276 0.252763,0.12276 0.09728,0 0.176891,-0.0552 0.176892,-0.12276 z m -32.28506,7.56388 c 0,-0.026 0.1105575,-0.076 0.2456815,-0.11125 0.1351299,-0.0354 0.2147275,-0.0143 0.1768914,0.0469 -0.066072,0.10698 -0.4225729,0.16111 -0.4225729,0.0643 z m 0.8263553,-0.41858 c 0.1193961,-0.0874 0.3413692,-0.18998 0.4932802,-0.22812 0.1519109,-0.0381 0.2762023,-0.12784 0.2762023,-0.19928 0,-0.0714 0.034004,-0.0959 0.075568,-0.0542 0.041573,0.0416 0.2210976,-0.0621 0.3989615,-0.2304 0.2907613,-0.2751 1.0235121,-0.67882 3.2521768,-1.79179 0.3955378,-0.19752 0.6906878,-0.38761 0.6558813,-0.42242 -0.034797,-0.0348 -0.2313922,0.0236 -0.4368628,0.1299 -0.2054708,0.10624 -0.4341209,0.19318 -0.5081139,0.19318 -0.2211575,0 -1.9357554,0.83512 -1.9825971,0.96566 -0.023801,0.0664 -0.3309168,0.23358 -0.6824337,0.37154 -0.5097282,0.20007 -0.6251212,0.21436 -0.5699607,0.0707 0.09341,-0.24342 0.011928,-0.22926 -0.6652159,0.11551 -0.3194621,0.16266 -0.7189384,0.33124 -0.8877277,0.37462 -0.2970618,0.0763 -0.2990295,0.0729 -0.061381,-0.10735 0.1350326,-0.10247 0.3122338,-0.24343 0.3937748,-0.31324 0.081545,-0.0698 0.2196496,-0.1261 0.306893,-0.12508 0.1950971,0.002 3.5486722,-1.6244 3.4833926,-1.68969 -0.025798,-0.0258 -0.3977041,0.12334 -0.8265123,0.33135 -1.3783606,0.66866 -0.2627943,-0.0153 2.4327152,-1.4914 1.4423682,-0.78991 2.8697831,-1.61378 3.1720321,-1.83083 0.834999,-0.59964 1.159095,-1.21823 0.725457,-1.38465 -0.309232,-0.11867 -1.9534192,-0.0866 -3.3601178,0.0656 -0.9850954,0.10649 -1.4193323,0.10539 -1.8163223,-0.006 -0.5086014,-0.14105 -0.5216843,-0.15769 -0.520516,-0.66167 0.00182,-0.7503 0.5220004,-1.76728 1.2584955,-2.46009 1.240897,-1.16725 4.1841996,-2.29661 6.4935386,-2.49158 0.903717,-0.0763 0.9529,-0.0668 1.266707,0.24709 0.51371,0.51371 0.377132,0.69628 -0.857678,1.14647 -0.607059,0.22133 -1.573288,0.57329 -2.147174,0.78215 -2.058516,0.74918 -3.6614012,1.64603 -3.4032477,1.90418 0.040366,0.0403 0.6035879,-0.022 1.2516376,-0.13878 1.5885681,-0.28604 3.7610461,-0.21688 4.3705921,0.13911 0.580018,0.33875 0.75155,0.71481 0.665616,1.45927 -0.150964,1.30775 -1.023401,2.53968 -2.539192,3.58548 -1.767671,1.21958 -6.8694315,3.60099 -7.7908798,3.63665 -0.2809117,0.011 -0.4804528,0.0688 -0.4434242,0.1287 0.037024,0.0598 -0.1033199,0.084 -0.3118944,0.0532 -0.208574,-0.0307 -0.3597989,-0.0242 -0.3360529,0.0143 0.023761,0.0384 -0.201147,0.0698 -0.4997619,0.0698 -0.4741189,0 -0.5154213,-0.0202 -0.3258596,-0.15877 z m 2.2425651,-0.63914 c 0.1012718,-0.0656 0.1288974,-0.11904 0.061381,-0.11904 -0.067522,0 -0.2056184,0.0535 -0.3068931,0.11904 -0.1012718,0.0656 -0.1288974,0.11904 -0.061381,0.11904 0.067511,0 0.2056144,-0.0535 0.306889,-0.11904 z m -0.1227552,-0.43828 c 0,-0.0337 -0.1104783,-0.002 -0.2455154,0.0701 -0.1350325,0.0722 -0.2455113,0.15902 -0.2455113,0.19277 0,0.0337 0.1104783,0.002 0.2455113,-0.0701 0.1350366,-0.0723 0.2455154,-0.15901 0.2455154,-0.19276 z m 1.4730817,-0.0658 c 0,-0.0603 -0.055242,-0.10953 -0.1227551,-0.10953 -0.067511,0 -0.1227604,0.0535 -0.1227604,0.11891 0,0.0654 -0.096673,0.0879 -0.2148236,0.0497 -0.1701116,-0.0547 -0.1788164,-0.0435 -0.041807,0.054 0.188206,0.13379 0.5021613,0.0632 0.5021613,-0.11295 z m 0.859297,-2.26417 c 0,-0.0337 -0.1657183,0.0244 -0.3682711,0.12908 -0.2025473,0.10478 -0.3682708,0.21805 -0.3682708,0.2518 0,0.0337 0.1657235,-0.0242 0.3682708,-0.12906 0.2025528,-0.10478 0.3682711,-0.21807 0.3682711,-0.25182 z m 1.2208164,-0.55199 c 0.3001053,-0.20335 0.6729829,-0.40167 0.82861,-0.44072 0.1556272,-0.0391 0.2829572,-0.12136 0.2829572,-0.18298 0,-0.11368 -0.4764482,0.10552 -1.4730825,0.67772 -0.3038262,0.17446 -0.4695444,0.31685 -0.3682706,0.31643 0.101273,-3.8e-4 0.4296762,-0.16712 0.7297859,-0.37045 z m -7.48141711,3.75114 c 0,-0.0841 0.75162941,-0.45665 0.80778791,-0.40048 0.026628,0.0267 -0.1442186,0.14029 -0.37967975,0.25258 -0.23545711,0.11234 -0.42810816,0.17883 -0.42810816,0.1479 z M 57.578165,291.13321 c 0,-0.0176 0.276203,-0.18212 0.613783,-0.36585 0.337583,-0.18373 0.613785,-0.37987 0.613785,-0.43586 0,-0.0561 0.124292,-0.0887 0.276202,-0.0726 0.15191,0.0161 0.265869,-0.0295 0.25324,-0.10101 -0.01262,-0.0716 0.498348,-0.39428 1.135503,-0.717 0.63715,-0.32269 1.158461,-0.60688 1.158461,-0.6315 0,-0.0634 -0.8312,0.23773 -1.511318,0.54755 -0.316553,0.1442 -0.575547,0.30415 -0.575547,0.35541 0,0.15853 -1.08519,0.51192 -1.132858,0.36892 -0.02556,-0.0768 -0.237685,-0.0239 -0.527262,0.13136 -0.266472,0.14281 -0.540549,0.25844 -0.609063,0.25694 -0.175136,-0.005 0.455738,-0.48223 0.640329,-0.48557 0.299312,-0.006 1.736044,-0.7879 1.663164,-0.90581 -0.04352,-0.0704 0.0099,-0.0882 0.128215,-0.0429 0.111536,0.0429 0.18965,0.0233 0.173584,-0.0434 -0.01606,-0.0668 0.909873,-0.63637 2.057649,-1.26607 2.196478,-1.20503 2.93437,-1.75282 2.863324,-2.12564 -0.0348,-0.18257 -0.184987,-0.22914 -0.839068,-0.26012 -0.438177,-0.0207 -1.238609,0.0205 -1.778742,0.0916 -0.68338,0.0899 -1.122057,0.0904 -1.442391,10e-4 -0.400586,-0.11149 -0.460339,-0.17567 -0.460339,-0.49466 0,-0.53719 0.531794,-1.49667 1.098256,-1.98155 1.39258,-1.192 5.350644,-2.29053 5.893991,-1.63584 0.342585,0.41281 0.09826,0.59586 -1.652882,1.23843 -1.945379,0.71384 -2.839811,1.14038 -3.17946,1.51623 -0.128615,0.14235 -0.211474,0.2577 -0.184133,0.25637 0.02732,-10e-4 0.491639,-0.0822 1.031769,-0.17985 1.66149,-0.3002 3.14599,-0.17032 3.634279,0.31797 0.681478,0.68149 -0.08316,2.43828 -1.529027,3.51298 -0.800549,0.59505 -4.509886,2.4625 -5.542442,2.79034 -0.538183,0.17087 -2.271002,0.44533 -2.271002,0.3597 z m 2.946161,-0.97329 c 0,-0.0223 -0.10665,-0.0325 -0.237007,-0.0228 -0.130353,0.01 -0.211445,0.0592 -0.180202,0.10966 0.05186,0.084 0.417209,0.007 0.417209,-0.087 z m 0.273239,-1.52849 c 0.221058,-0.13478 0.346685,-0.2449 0.27917,-0.2447 -0.06751,2.4e-4 -0.288479,0.11014 -0.491026,0.24423 -0.479932,0.31785 -0.309316,0.31822 0.211856,4.7e-4 z m 1.254206,-0.62637 c 0.602577,-0.35554 0.548701,-0.41764 -0.08505,-0.0981 -0.604442,0.30483 -0.674197,0.35569 -0.487814,0.35569 0.07491,0 0.332698,-0.116 0.572864,-0.25764 z m -47.86814,2.95832 c -0.03805,-0.0617 0.0154,-0.31451 0.118834,-0.56203 0.245029,-0.58644 0.23669,-0.67628 -0.0276,-0.29729 -0.117713,0.16877 -0.312627,0.31488 -0.433147,0.32465 -0.146919,0.0122 -0.183539,-0.0285 -0.111122,-0.12276 0.191635,-0.24933 0.278785,-0.59077 0.126809,-0.49685 -0.09855,0.0609 -0.113425,-0.0179 -0.05089,-0.26984 0.04859,-0.19573 0.139857,-0.37441 0.202804,-0.39706 0.06295,-0.0227 0.08639,-0.0865 0.05208,-0.14207 -0.03429,-0.0556 0.551016,-1.36276 1.300697,-2.90499 0.749685,-1.54226 1.663214,-3.42555 2.030066,-4.18512 0.721596,-1.49404 0.847373,-1.59248 1.439654,-1.12658 0.240287,0.189 0.323446,0.36583 0.323446,0.68774 0,0.58294 -0.612134,2.37494 -1.238187,3.62475 -0.581615,1.1611 -2.420064,4.39361 -2.60395,4.57847 -0.08111,0.0816 -0.08908,0.0648 -0.02376,-0.0496 0.06443,-0.11295 0.05133,-0.14335 -0.038,-0.0881 -0.07501,0.0463 -0.109928,0.15314 -0.07764,0.23732 0.0323,0.0842 -0.02946,0.26193 -0.137223,0.39502 -0.107771,0.1331 -0.160972,0.17294 -0.118225,0.0886 0.135022,-0.26655 -0.04425,-0.16582 -0.190202,0.10685 -0.106991,0.1999 -0.105151,0.23921 0.0079,0.16933 0.111523,-0.069 0.115325,-0.0314 0.01563,0.15488 -0.152585,0.2851 -0.467512,0.43745 -0.568038,0.2748 z m 0.336322,-0.16596 c 0.07822,0.0482 0.09536,0.023 0.04241,-0.0626 -0.104456,-0.16901 -0.321693,-0.0675 -0.307686,0.14373 0.0068,0.10466 0.02738,0.10235 0.07186,-0.007 0.03419,-0.0848 0.121234,-0.1177 0.193407,-0.0731 z m 2.860267,-0.0557 c 0.01434,-0.18199 0.06643,-0.42755 0.115764,-0.5457 0.110646,-0.26497 -0.04402,-0.28266 -0.23136,-0.0264 -0.123428,0.1688 -0.163087,0.16785 -0.381805,-0.009 -0.134238,-0.10857 -0.171321,-0.1602 -0.08242,-0.11466 0.09872,0.0506 0.150086,0.0182 0.13194,-0.0831 -0.06283,-0.35053 0.322924,-1.35406 1.375925,-3.57929 0.600878,-1.2698 1.092506,-2.33916 1.092506,-2.37637 0,-0.0372 -0.151004,-0.0297 -0.33557,0.0166 l -0.33557,0.0842 0.324246,-0.25504 c 0.178333,-0.14028 0.398391,-0.25893 0.489017,-0.26369 0.09063,-0.006 0.05428,-0.0518 -0.08075,-0.10466 -0.237697,-0.093 -0.236723,-0.0988 0.03067,-0.18378 0.431527,-0.13719 0.323888,-0.31331 -0.114631,-0.18755 -0.575058,0.16491 -0.543486,0.0707 0.08456,-0.2523 0.356425,-0.18332 0.674681,-0.47797 0.890753,-0.82469 0.304833,-0.48914 0.370544,-0.53241 0.704463,-0.46379 0.475733,0.0978 0.606923,0.0972 2.16957,-0.007 1.278269,-0.0859 1.324122,-0.0799 1.877216,0.24418 0.652848,0.38259 1.253401,1.14537 1.363393,1.73167 0.0954,0.50849 -0.212156,1.6009 -0.720344,2.55867 -1.221991,2.30306 -4.355245,3.81396 -6.399112,3.08574 -0.439428,-0.15656 -0.929995,-0.0866 -0.929995,0.1326 0,0.0353 0.06075,0.0268 0.135004,-0.0193 0.09489,-0.0586 0.0936,-0.006 -0.0041,0.1769 -0.07663,0.14318 -0.190674,0.26033 -0.25344,0.26033 -0.06277,0 -0.176816,0.11709 -0.253444,0.26032 -0.112279,0.2098 -0.107161,0.24377 0.02635,0.17504 0.09113,-0.047 0.06989,-0.006 -0.04721,0.0893 -0.117104,0.096 -0.172344,0.22266 -0.122756,0.28128 0.04959,0.0585 -0.01555,0.0256 -0.144761,-0.0736 -0.218508,-0.16748 -0.225542,-0.16248 -0.100643,0.072 0.137759,0.25865 0.07006,0.46593 -0.166029,0.5084 -0.07384,0.0133 -0.121698,-0.12363 -0.10726,-0.30689 z m -0.173411,-1.09811 c 0.152695,-0.19468 0.148352,-0.19904 -0.04635,-0.0463 -0.118152,0.0927 -0.214824,0.18933 -0.214824,0.21481 0,0.10101 0.100801,0.036 0.261173,-0.16847 z m 4.461904,-1.80239 c 1.10376,-0.64683 2.420031,-2.62355 2.594478,-3.89625 0.0675,-0.49251 0.04259,-0.58241 -0.210618,-0.75977 -0.296235,-0.20748 -1.324744,-0.27118 -2.04686,-0.12676 -0.330397,0.066 -0.407694,0.17228 -0.692423,0.95137 -0.176278,0.48234 -0.706327,1.59339 -1.17789,2.46898 -0.471559,0.87562 -0.857024,1.59373 -0.856588,1.59585 4.64e-4,0.002 0.417976,0.021 0.927862,0.0419 0.812314,0.0334 0.993279,-4.6e-4 1.462039,-0.27537 z m 34.981545,2.82191 c 0.131062,-0.10491 0.292177,-0.19089 0.358046,-0.19089 0.155966,0 0.08633,0.0566 -0.289439,0.23564 -0.28937,0.13782 -0.293289,0.13526 -0.06861,-0.0447 z m 12.252228,-0.80139 -0.521716,-0.23681 v -0.98073 c 0,-1.11741 0.254005,-1.9481 1.233379,-4.03362 l 0.590891,-1.25824 h -0.888671 c -0.523146,0 -0.97609,-0.064 -1.101197,-0.15543 -0.194818,-0.14245 -0.19685,-0.18681 -0.02436,-0.53254 0.339518,-0.68058 0.566536,-0.79161 1.919136,-0.93861 0.904658,-0.0982 1.323362,-0.19839 1.478246,-0.35328 0.228525,-0.22853 0.910945,-0.40419 1.291645,-0.3325 0.1249,0.0235 0.281617,0.16675 0.34826,0.31826 0.09971,0.22667 0.219376,0.27565 0.675164,0.27635 0.758724,10e-4 2.740639,0.30771 3.023597,0.46764 0.197898,0.11185 0.151799,0.14372 -0.321365,0.22219 l -0.552403,0.0916 0.488906,0.10381 c 0.808757,0.17186 0.806872,0.33959 -0.0041,0.35753 -0.640315,0.0143 -0.677409,0.0273 -0.300756,0.10661 0.236308,0.0497 0.374409,0.0986 0.306894,0.10844 -0.06751,0.01 -0.04161,0.0692 0.05753,0.13206 0.130725,0.0827 0.06323,0.11295 -0.245512,0.11014 -0.234189,-0.002 -1.204842,10e-4 -2.157005,0.007 l -1.731199,0.0122 -0.560852,1.19595 c -0.886903,1.89121 -1.595621,3.74071 -1.928283,5.0321 -0.154522,0.59986 -0.291929,0.63555 -1.076291,0.2795 z m -16.048329,-0.58639 c -0.423396,-0.42258 -1.042883,-1.48871 -1.044414,-1.79743 -0.0015,-0.26858 1.315279,-2.8115 2.303617,-4.44925 l 0.676848,-1.1216 0.626744,-0.0764 c 0.344716,-0.0419 1.874606,-0.11125 3.399767,-0.15379 2.500789,-0.0698 2.780595,-0.0576 2.850246,0.12384 0.05175,0.13483 0.01239,0.20126 -0.119261,0.20126 -0.108063,0 -0.368725,0.10491 -0.579238,0.23305 -0.659186,0.40137 -1.518975,0.62501 -3.12501,0.81288 -0.854008,0.0999 -1.648475,0.18162 -1.765485,0.18162 -0.242328,0 -0.530936,0.39333 -0.653052,0.89 l -0.08301,0.33758 h 1.6722 c 1.117308,0 1.758431,0.0509 1.932078,0.15344 0.20791,0.12277 0.271,0.12277 0.315457,0 0.03057,-0.0843 0.230498,-0.14592 0.444302,-0.13672 0.300869,0.013 0.324681,0.029 0.105358,0.0708 -0.22808,0.0435 -0.255342,0.088 -0.139712,0.22721 0.07901,0.0953 0.111584,0.25667 0.0724,0.35881 -0.04598,0.11989 0.0038,0.18912 0.139714,0.19539 0.129302,0.006 0.151274,0.0337 0.05677,0.0719 -0.08482,0.0342 -0.126863,0.10637 -0.09343,0.16052 0.07931,0.12834 -1.48632,0.34082 -3.189558,0.43289 -2.199225,0.11892 -2.156712,0.10503 -2.577197,0.83512 -0.202167,0.35099 -0.386305,0.67961 -0.409192,0.73023 -0.02287,0.0506 0.418727,0.0961 0.98136,0.10125 1.136779,0.01 4.481701,0.31485 3.754315,0.34195 -0.253184,0.009 -0.460334,0.0783 -0.460334,0.15303 0,0.0748 -0.06934,0.1093 -0.154098,0.0769 -0.08475,-0.0325 -0.22123,0.0128 -0.303291,0.10064 -0.117116,0.12538 -0.116982,0.17068 4.64e-4,0.21068 0.08242,0.028 -0.0995,0.0887 -0.404266,0.13495 -0.304763,0.0462 -1.240297,0.27592 -2.078962,0.51048 -0.838631,0.23458 -1.589889,0.42649 -1.669427,0.42649 -0.07953,0 -0.29682,-0.15191 -0.482851,-0.33759 z m 5.767438,-4.5727 c -0.04171,-0.0675 -0.224516,-0.12191 -0.406204,-0.12087 -0.25837,0.001 -0.290222,0.0278 -0.1462,0.12087 0.242553,0.15675 0.64928,0.15675 0.552404,0 z m -2.976851,-0.0813 c -0.0844,-0.0341 -0.222497,-0.0341 -0.306893,0 -0.0844,0.0341 -0.01537,0.0619 0.153446,0.0619 0.168791,0 0.237841,-0.0279 0.153447,-0.0619 z m -9.474244,4.66221 c -0.599468,-0.31766 -0.870905,-0.7524 -0.948545,-1.51923 -0.12132,-1.19821 0.602054,-3.21622 1.837386,-5.12586 0.526895,-0.81449 1.055335,-1.22252 1.163411,-0.89828 0.02546,0.0765 0.141179,0.13905 0.257082,0.13905 0.283912,0 0.505418,0.23958 0.505032,0.54626 -1.21e-4,0.13842 -0.201225,0.5831 -0.446776,0.9882 -0.635951,1.04912 -1.377739,2.6105 -1.467479,3.08884 -0.113559,0.60534 0.02728,1.0073 0.384365,1.09693 0.754633,0.18939 1.720356,-0.70805 2.515673,-2.33782 0.427532,-0.87611 1.469612,-4.04121 1.469653,-4.46378 10e-6,-0.0883 0.06118,-0.1229 0.135928,-0.0768 0.09258,0.0573 0.107954,-0.005 0.04823,-0.19226 -0.05973,-0.1882 -0.04436,-0.24947 0.04823,-0.19225 0.07475,0.0462 0.14011,0.1774 0.145247,0.29157 0.0052,0.11417 0.08379,0.0144 0.174794,-0.22207 l 0.165458,-0.42965 0.01931,0.42965 0.0193,0.42965 0.168626,-0.36827 c 0.09276,-0.20254 0.17112,-0.29245 0.174167,-0.1998 0.0046,0.13581 0.04124,0.13886 0.189669,0.0156 0.231397,-0.19203 0.231391,-0.10515 -2.4e-5,0.44865 -0.170834,0.40886 -0.169388,0.42856 0.02001,0.27226 0.451743,-0.37283 -0.03455,2.76048 -0.743282,4.78898 -0.545807,1.56222 -1.392043,2.49043 -2.92415,3.20737 -1.053099,0.49282 -2.288613,0.61287 -2.911312,0.28291 z m 5.844704,-8.04113 c -0.0392,-0.098 -0.06827,-0.0688 -0.07418,0.0742 -0.0054,0.12942 0.02371,0.20192 0.06447,0.16113 0.04078,-0.0408 0.04514,-0.14666 0.0097,-0.23529 z m 25.4826,1.16551 c 0.119443,-0.0311 0.285157,-0.0291 0.368272,0.006 0.08311,0.0336 -0.01461,0.0591 -0.217165,0.0566 -0.202546,-0.002 -0.270549,-0.03 -0.151107,-0.061 z M 51.75949,280.20978 c -0.04369,-0.1138 -0.05181,-0.23461 -0.01805,-0.26837 0.03379,-0.0337 0.09713,0.0318 0.140813,0.14562 0.04369,0.11392 0.05181,0.23463 0.01805,0.26838 -0.03379,0.0337 -0.09712,-0.0319 -0.140808,-0.14563 z"
       id="path3724"
       inkscape:connector-curvature="0"
       inkscape:export-xdpi="96"
       inkscape:export-ydpi="96" />
  </g>
</svg>
